<svg version="1.0" xmlns="http://www.w3.org/2000/svg" viewBox="0 0 502 502"><g stroke-width="0"><path d="M171 130.9v40l13.8 8.2c7.5 4.5 14.7 8.9 16 9.7l2.2 1.4V91h-32v39.9z"/><path d="M219 145.4v54.5l15.5 9.3 15.5 9.3-9.4 1.2c-12.1 1.5-22 4.5-32 9.5-11.6 5.8-16.1 9.1-26.1 19.2-12.5 12.7-19.7 25.4-24.7 43.6-2.9 10.9-3.2 33.4-.5 44.4 4.4 17.8 12.8 32.7 25.7 45.7 13.2 13.5 28.7 22.2 47.1 26.6 11.4 2.7 32.8 2.5 43.9-.5 18.8-5.1 30.9-12.1 44.5-25.7 13.6-13.7 20.6-25.8 25.7-44.5 3.1-11.8 3.2-34.7 0-46.1-5-18.6-14.2-33.9-27.5-46.5-15.2-14.4-33.7-23-54.4-25.6l-10.3-1.3 15.5-9.3 15.5-9.3V91h-64v54.4zm67.3 130.8c3.1 1.6 4.6 3.9 4.6 6.8.1 3.8-37.8 69.1-41 70.9-1.5.8-3.6 1.1-5 .8-3.6-1-31.9-23.5-32.9-26.3-1.1-2.9.5-8.1 3-9.4 4.4-2.3 7.3-1.1 18 7.4 5.8 4.6 10.8 8.2 11.1 8 .3-.2 7.9-13.1 16.8-28.7 17.7-31 19.3-32.8 25.4-29.5z"/><path d="M299 140.5v49.6l2.8-1.5c1.5-.8 8.6-5 15.7-9.4l13-7.8.3-40.2.2-40.2h-32v49.5z"/></g></svg>